<?xml version="1.0" encoding="UTF-8" standalone="no"?>
<!DOCTYPE svg PUBLIC "-//W3C//DTD SVG 1.1//EN" "http://www.w3.org/Graphics/SVG/1.1/DTD/svg11.dtd">
<svg width="100%" height="100%" viewBox="0 0 2000 2000" version="1.1" xmlns="http://www.w3.org/2000/svg" xmlns:xlink="http://www.w3.org/1999/xlink" xml:space="preserve" xmlns:serif="http://www.serif.com/" style="fill-rule:evenodd;clip-rule:evenodd;stroke-linejoin:round;stroke-miterlimit:2;">
    <g transform="matrix(1,0,0,1,-196.855,-2084)">
        <g transform="matrix(1,0,0,1,-0.854655,0)">
            <g transform="matrix(3.80228,0,0,4,-1019.02,1520)">
                <ellipse cx="583" cy="391" rx="263" ry="250" style="fill:rgb(1,96,129);"/>
            </g>
        </g>
        <g transform="matrix(1,0,0,1,-0.854655,0)">
            <g transform="matrix(4,0,0,4,-771.609,1681.85)">
                <path d="M613,174L622,168C629.955,162.488 631.812,176.107 633,182C634.188,187.893 636.033,192.87 646,199C655.967,205.13 667.896,230.181 673,239C678.104,247.819 684.781,277.72 678,314C671.219,350.28 655.654,362.152 646,369C635.307,376.585 628.217,371.98 640,402C651.783,432.02 668,438 668,438C678.353,442.829 690,443 690,443C711.763,444.312 700,457 700,457C694.68,463.43 674,460 674,460C674.011,462.59 670,465 670,465C631.214,476.447 605,453 605,453C587.038,430.157 572,400 572,400C569.352,393.66 570,389 570,389C556.733,389.117 559.257,391.261 541,391C522.824,390.74 516,399 516,399C499.602,418.684 494,422 494,422C490.473,424.893 485.377,426.253 486,429C486.623,431.747 496.541,438.277 513,437C529.459,435.723 548.221,443.249 544,451C539.779,458.751 530,458 530,458C517.109,457.248 517,460 517,460C517.21,466.545 509,467 509,467C477.148,469.969 467.95,468.168 445,469C422.05,469.832 411,466 411,466C394.594,460.642 395.862,447.737 393,441C390.521,435.165 386.602,428.853 386,428C381.503,421.627 381,427 381,427C379.62,444.412 385,456 385,456C403.347,495.582 437.355,509.163 454,506C470.496,502.865 500,509 500,509C545.223,520.166 547.734,562.139 547,565C546.222,568.03 542,568 542,568C534.89,567.833 532.8,565.137 521,567C509.2,568.863 487,577 487,577C469.066,583.136 444,579 444,579C405.892,572.698 365.658,533.465 345,483C322.749,428.643 359,384 359,384C397.484,333.445 383.414,352.822 398,333C412.586,313.178 431,304 431,304C457.886,287.774 492.072,289.528 501,290C509.928,290.472 518.322,291.636 534,297C549.678,302.364 566.242,301.014 572,300C577.758,298.986 592.262,296.915 601,286C609.738,275.085 608.977,261.696 609,256C609.023,250.304 606.673,244.948 604,244C601.327,243.052 599,243 599,243C584.222,242.19 581.818,243.683 571,245C560.182,246.317 555.396,245.827 551,242C546.604,238.173 541.759,233.922 540,231C538.241,228.078 540,225 540,225C546.281,215.664 556.007,213.263 559,210C561.993,206.737 564.025,198.449 571,192C577.975,185.551 582,184 582,184C585.777,182.154 592,179 592,179C596.504,177.916 599.786,168.863 603,168C606.214,167.137 613,174 613,174ZM580.475,208.538C580.475,208.538 574.807,207.729 572.475,213.538C572.475,213.538 570.996,216.554 577.475,215.538C577.475,215.538 581.928,214.026 582.475,211.538C583.022,209.05 580.153,208.394 580.475,208.538Z" style="fill:rgb(102,255,255);"/>
            </g>
        </g>
        <g transform="matrix(1,0,0,1,-0.854655,0)">
            <g transform="matrix(0.773373,-2.15187,-2.15187,-0.773373,605.612,4542.69)">
                <g transform="matrix(1,0,0,1,-5,-830)">
                    <path d="M718,1064C718,1064 800.698,1121.33 891,1065C891,1065 961.266,1025.25 964,931C964,931 964.76,928.619 965,933C965.24,937.381 965.527,1022.49 888,1070C888,1070 803.486,1126.02 715.409,1067C715.409,1067 715.771,1064.45 718,1064Z" style="fill:rgb(102,255,255);"/>
                </g>
                <g id="gore">
                    <g transform="matrix(1,0,0,1,-5,-830)">
                        <path d="M804,1057C804,1057 773.239,1059.22 766,1082C766,1082 782.545,1090.74 797,1072C797,1072 803.752,1061.02 804,1057Z" style="fill:rgb(102,255,255);"/>
                    </g>
                    <g transform="matrix(0.859067,-0.437727,0.409112,0.802908,-271.329,-279.233)">
                        <path d="M804,1057C804,1057 773.239,1059.22 766,1082C766,1082 782.545,1090.74 797,1072C797,1072 803.752,1061.02 804,1057Z" style="fill:rgb(102,255,255);"/>
                    </g>
                    <g transform="matrix(0.758254,-0.595527,0.556596,0.708685,-321.075,-66.8844)">
                        <path d="M804,1057C804,1057 773.239,1059.22 766,1082C766,1082 782.545,1090.74 797,1072C797,1072 803.752,1061.02 804,1057Z" style="fill:rgb(102,255,255);"/>
                    </g>
                    <g transform="matrix(0.646735,-0.715076,0.66833,0.604457,-328.147,122.54)">
                        <path d="M804,1057C804,1057 773.239,1059.22 766,1082C766,1082 782.545,1090.74 797,1072C797,1072 803.752,1061.02 804,1057Z" style="fill:rgb(102,255,255);"/>
                    </g>
                    <g transform="matrix(0.47629,-0.838301,0.783499,0.445154,-297.638,366.807)">
                        <path d="M804,1057C804,1057 773.239,1059.22 766,1082C766,1082 782.545,1090.74 797,1072C797,1072 803.752,1061.02 804,1057Z" style="fill:rgb(102,255,255);"/>
                    </g>
                    <g transform="matrix(0.286894,-0.86768,0.776859,0.256864,-126.088,566.697)">
                        <path d="M804,1057C804,1057 773.239,1059.22 766,1082C766,1082 782.545,1090.74 797,1072C797,1072 803.752,1061.02 804,1057Z" style="fill:rgb(102,255,255);"/>
                    </g>
                    <g transform="matrix(0.165485,-0.898772,0.804696,0.148164,-40.63,600.882)">
                        <path d="M804,1057C804,1057 773.239,1059.22 766,1082C766,1082 782.545,1090.74 797,1072C797,1072 803.752,1061.02 804,1057Z" style="fill:rgb(102,255,255);"/>
                    </g>
                    <g transform="matrix(0.102204,-0.897995,0.755859,0.0860269,50.5178,747.657)">
                        <path d="M804,1057C804,1057 773.239,1059.22 766,1082C766,1082 782.545,1090.74 797,1072C797,1072 803.752,1061.02 804,1057Z" style="fill:rgb(102,255,255);"/>
                    </g>
                    <g transform="matrix(-0.0736862,-0.900784,0.758207,-0.0620231,191.079,880.336)">
                        <path d="M804,1057C804,1057 773.239,1059.22 766,1082C766,1082 782.545,1090.74 797,1072C797,1072 803.752,1061.02 804,1057Z" style="fill:rgb(102,255,255);"/>
                    </g>
                    <g transform="matrix(-0.201497,-0.881045,0.741592,-0.169604,307.654,952.008)">
                        <path d="M804,1057C804,1057 773.239,1059.22 766,1082C766,1082 782.545,1090.74 797,1072C797,1072 803.752,1061.02 804,1057Z" style="fill:rgb(102,255,255);"/>
                    </g>
                    <g transform="matrix(0.979755,-0.200199,0.200199,0.979755,-171.425,-649.171)">
                        <path d="M804,1057C804,1057 773.239,1059.22 766,1082C766,1082 782.545,1090.74 797,1072C797,1072 803.752,1061.02 804,1057Z" style="fill:rgb(102,255,255);"/>
                    </g>
                </g>
                <g id="dole">
                    <g transform="matrix(0.181183,1.04823,-1.28244,0.221665,2008.87,-781.143)">
                        <path d="M804,1057C804,1057 773.239,1059.22 766,1082C766,1082 782.545,1090.74 797,1072C797,1072 803.752,1061.02 804,1057Z" style="fill:rgb(102,255,255);"/>
                    </g>
                    <g transform="matrix(0.140834,0.814793,-1.5241,0.263435,2338.74,-642.607)">
                        <path d="M804,1057C804,1057 773.239,1059.22 766,1082C766,1082 782.545,1090.74 797,1072C797,1072 803.752,1061.02 804,1057Z" style="fill:rgb(102,255,255);"/>
                    </g>
                    <g transform="matrix(0.323025,0.761168,-1.42379,0.60423,2125.34,-974.554)">
                        <path d="M804,1057C804,1057 773.239,1059.22 766,1082C766,1082 782.545,1090.74 797,1072C797,1072 803.752,1061.02 804,1057Z" style="fill:rgb(102,255,255);"/>
                    </g>
                    <g transform="matrix(0.487384,0.664876,-1.21216,0.888571,1805.22,-1219.74)">
                        <path d="M804,1057C804,1057 773.239,1059.22 766,1082C766,1082 782.545,1090.74 797,1072C797,1072 803.752,1061.02 804,1057Z" style="fill:rgb(102,255,255);"/>
                    </g>
                    <g transform="matrix(0.647237,0.510576,-0.930853,1.18001,1407.58,-1432.7)">
                        <path d="M804,1057C804,1057 773.239,1059.22 766,1082C766,1082 782.545,1090.74 797,1072C797,1072 803.752,1061.02 804,1057Z" style="fill:rgb(102,255,255);"/>
                    </g>
                    <g transform="matrix(1.05609,0.120497,-0.111912,0.980845,233.77,-942.315)">
                        <path d="M804,1057C804,1057 773.239,1059.22 766,1082C766,1082 782.545,1090.74 797,1072C797,1072 803.752,1061.02 804,1057Z" style="fill:rgb(102,255,255);"/>
                    </g>
                    <g transform="matrix(1.05804,-0.101989,0.0947225,0.982654,28.5253,-800.6)">
                        <path d="M804,1057C804,1057 773.239,1059.22 766,1082C766,1082 782.545,1090.74 797,1072C797,1072 803.752,1061.02 804,1057Z" style="fill:rgb(102,255,255);"/>
                    </g>
                    <g transform="matrix(1.00728,-0.339462,0.315275,0.935512,-158.225,-596.718)">
                        <path d="M804,1057C804,1057 773.239,1059.22 766,1082C766,1082 782.545,1090.74 797,1072C797,1072 803.752,1061.02 804,1057Z" style="fill:rgb(102,255,255);"/>
                    </g>
                    <g transform="matrix(0.885993,-0.493853,0.457954,0.821589,-212.253,-386.563)">
                        <path d="M804,1057C804,1057 773.239,1059.22 766,1082C766,1082 782.545,1090.74 797,1072C797,1072 803.752,1061.02 804,1057Z" style="fill:rgb(102,255,255);"/>
                    </g>
                    <g transform="matrix(0.756273,-0.678963,0.593472,0.661049,-258.866,-101.891)">
                        <path d="M804,1057C804,1057 773.239,1059.22 766,1082C766,1082 782.545,1090.74 797,1072C797,1072 803.752,1061.02 804,1057Z" style="fill:rgb(102,255,255);"/>
                    </g>
                </g>
            </g>
        </g>
    </g>
</svg>
